<svg width="79" height="72" viewBox="0 0 79 72" fill="none" xmlns="http://www.w3.org/2000/svg">
<path fill-rule="evenodd" clip-rule="evenodd" d="M77.0585 35.6805L78.3813 37.0034C79.1125 37.7346 79.1125 38.918 78.3813 39.6492L46.6323 71.3982C45.9011 72.1294 44.7178 72.1294 43.9866 71.3982L29.1207 56.5323C27.0343 57.5257 24.457 57.1602 22.7324 55.4355L17.4409 50.144C15.7162 48.4193 15.3505 45.842 16.344 43.7556L1.47815 28.8898C0.74695 28.1586 0.74695 26.9752 1.47815 26.244L33.2272 -5.50501C33.9584 -6.23621 35.1417 -6.23621 35.8729 -5.50501L37.1958 -4.18213L9.41541 23.5983C7.22702 25.7867 7.31521 29.4353 9.5036 31.6237L21.6355 43.7556C20.6421 45.8421 21.0077 48.4193 22.7324 50.144C24.457 51.8687 27.0344 52.2343 29.1207 51.2408L41.2526 63.3727C43.441 65.5611 47.0897 65.6493 49.2781 63.4609L77.0585 35.6805ZM58.014 12.2166L27.6702 42.5604C28.0187 41.0333 28.8515 35.0971 22.7324 28.978C22.0012 28.2468 22.0012 27.0634 22.7324 26.3322L49.1899 -0.125311C49.9211 -0.856508 51.1044 -0.856508 51.8356 -0.125311C56.3246 4.36365 57.7132 8.85534 58.014 12.2166ZM30.6696 47.4982L43.8984 60.727C44.6296 61.4582 45.8129 61.4582 46.5441 60.727L75.6474 31.6237C76.3786 30.8925 76.3786 29.7092 75.6474 28.978L65.0644 18.395C63.5697 16.9003 61.6874 16.0525 59.7391 15.783L28.0239 47.4982C28.7537 46.7684 29.9397 46.7684 30.6696 47.4982ZM41.2526 -2.77106C41.9838 -3.50226 43.1672 -3.50226 43.8984 -2.77106L45.2213 -1.44819L20.0866 23.6865C17.8982 25.8749 17.8982 29.4353 20.0866 31.6237C24.0919 35.629 24.2872 39.3197 24.13 40.9586L12.1493 28.978C11.4182 28.2468 11.4181 27.0634 12.1493 26.3322L41.2526 -2.77106Z" fill="#F04667"/>
</svg>
