<svg width="81" height="54" viewBox="0 0 81 54" fill="none" xmlns="http://www.w3.org/2000/svg">
<path fill-rule="evenodd" clip-rule="evenodd" d="M77.5709 31.7925L77.5708 32.0521C77.5708 33.2166 77.1175 34.3118 76.2943 35.1354C75.4716 35.9581 74.3755 36.4124 73.211 36.4124L57.44 36.4114C55.0935 36.4124 53.0478 34.3667 53.0478 32.0192L53.0469 23.6142L40.9973 23.6049L41.0074 38.7742C41.0083 39.201 40.7971 39.6006 40.4461 39.8418L22.3489 52.2515C20.9859 53.1008 19.3909 53.2845 17.9228 52.7891C17.1632 52.5323 16.484 52.1072 15.9292 51.5524C15.4136 51.0368 15.005 50.4089 14.7363 49.7013C13.8606 47.4088 14.8102 44.768 16.9922 43.4252L29.295 34.4516L29.5472 23.1717L15.9912 23.6142C15.632 23.6261 15.2865 23.4889 15.0342 23.2366L2.23693 10.4393C1.23778 9.44019 0.686587 8.05894 0.724072 6.64673C0.761453 5.21433 1.37022 3.89625 2.43792 2.93645C4.48002 1.09731 7.67194 1.24901 9.70493 3.282L18.2809 11.858L47.725 10.2225L45.5924 8.08991L33.3289 8.43732C32.1177 8.49127 30.9102 8.02415 30.0345 7.15755L30.019 7.14201C29.1406 6.2636 28.6807 5.08904 28.7246 3.83485C28.8059 1.48831 30.8845 -0.420318 33.3572 -0.421249L49.8036 0.00475323C50.1345 0.0138656 50.4489 0.149103 50.6839 0.384057L60.6375 10.3377C61.5232 11.2234 62.0388 12.399 62.0881 13.6495L62.6018 26.5181C62.6227 27.0218 63.035 27.4138 63.5387 27.413L73.1339 27.3628C75.5864 27.3638 77.5709 29.3537 77.5709 31.7925ZM78.1065 22.3221C75.0817 25.3469 70.162 25.3469 67.1373 22.3221C64.1126 19.2974 64.1126 14.3777 67.1373 11.3529C70.162 8.32807 75.0818 8.32817 78.1065 11.3529C81.1313 14.3776 81.1313 19.2973 78.1065 22.3221Z" fill="#29BA66"/>
</svg>
