<svg width="75" height="85" viewBox="0 0 75 85" fill="none" xmlns="http://www.w3.org/2000/svg">
<g id="Group 14">
<path id="Shape" fill-rule="evenodd" clip-rule="evenodd" d="M65.0952 31.2242C58.938 37.3814 50.6187 36.4078 45.8375 31.6266L35.3385 21.1275L21.8645 21.9049C19.9624 22.0161 18.9408 19.711 20.2794 18.3724L26.5446 12.1071C22.7454 6.89567 23.1957 -0.469298 27.8963 -5.16995C34.025 -11.2987 42.3401 -10.3863 47.154 -5.57233L65.0952 12.3689C70.293 17.5666 70.294 26.0255 65.0952 31.2242ZM57.2429 23.7743C58.245 22.7722 58.245 21.1471 57.2419 20.144C56.2399 19.142 54.6147 19.142 53.6127 20.144C52.6106 21.1461 52.6106 22.7712 53.6127 23.7733C54.6157 24.7763 56.2409 24.7763 57.2429 23.7743ZM35.7486 5.90925C34.7466 4.9072 34.7466 3.28204 35.7486 2.27999C36.7507 1.27794 38.3759 1.27794 39.3779 2.27999C40.3809 3.28302 40.3809 4.90818 39.3789 5.91023C38.3768 6.91228 36.7517 6.91228 35.7486 5.90925ZM48.3104 14.8418C49.3125 13.8397 49.3125 12.2145 48.3104 11.2125C47.3084 10.2104 45.6832 10.2104 44.6812 11.2125C43.6791 12.2145 43.6791 13.8397 44.6812 14.8418C45.6832 15.8438 47.3084 15.8438 48.3104 14.8418Z" fill="#5A1CBB"/>
<path id="Shape_2" fill-rule="evenodd" clip-rule="evenodd" d="M37.2224 30.7564L55.1636 48.6976C60.0347 53.5686 60.8204 61.8961 54.7612 67.9553C50.0606 72.6559 42.6956 73.1062 37.4842 69.307L31.2189 75.5722C29.8718 76.9193 27.5751 75.8739 27.6854 73.9881L28.4628 60.5141L17.9637 50.0151C13.1048 45.1562 12.2939 36.8295 18.3661 30.7574C23.5648 25.5586 32.0246 25.5586 37.2224 30.7564ZM25.8171 38.6086C24.8141 39.6116 24.8141 41.2368 25.8171 42.2398C26.8192 43.2419 28.4443 43.2419 29.4473 42.2388C30.4494 41.2368 30.4494 39.6116 29.4473 38.6096C28.4443 37.6065 26.8192 37.6065 25.8171 38.6086ZM34.7486 51.1713C33.7466 50.1693 33.7466 48.5441 34.7496 47.5411C35.7517 46.5391 37.3768 46.5391 38.3789 47.5411C39.3809 48.5432 39.3809 50.1683 38.3789 51.1704C37.3758 52.1734 35.7507 52.1734 34.7486 51.1713ZM43.6811 56.4726C42.6781 57.4757 42.6781 59.1008 43.6811 60.1038C44.6832 61.1059 46.3083 61.1059 47.3114 60.1029C48.3134 59.1008 48.3134 57.4757 47.3114 56.4736C46.3083 55.4706 44.6832 55.4706 43.6811 56.4726Z" fill="#5A1CBB"/>
</g>
</svg>
